<?xml version="1.0"?>
<svg height="165mm" viewBox="0 0 380 165" width="380mm" xmlns="http://www.w3.org/2000/svg">
  <g transform="translate(10 10)">
    <g transform="translate(55 16.5)">
      <path d="M 0 0 m -2.8 0 a 2.8 2.8 0 1 0 5.6 0 a 2.8 2.8 0 1 0 -5.6 0 z" fill="none" stroke="black" stroke-width="1"/>
    </g>
    <g transform="translate(55 124.3)">
      <path d="M 0 0 m -2.8 0 a 2.8 2.8 0 1 0 5.6 0 a 2.8 2.8 0 1 0 -5.6 0 z" fill="none" stroke="black" stroke-width="1"/>
    </g>
    <g transform="translate(304.79999999999995 16.0)">
      <path d="M 0 0 m -2.8 0 a 2.8 2.8 0 1 0 5.6 0 a 2.8 2.8 0 1 0 -5.6 0 z" fill="none" stroke="black" stroke-width="1"/>
    </g>
    <g transform="translate(304.79999999999995 124.8)">
      <path d="M 0 0 m -2.8 0 a 2.8 2.8 0 1 0 5.6 0 a 2.8 2.8 0 1 0 -5.6 0 z" fill="none" stroke="black" stroke-width="1"/>
    </g>
    <g transform="translate(305 72.5)">
      <g transform="translate(-29.5 0)">
        <path d="M 0 0 m -7.5 0 a 7.5 7.5 0 1 0 15.0 0 a 7.5 7.5 0 1 0 -15.0 0 z" fill="none" stroke="black" stroke-width="1"/>
      </g>
      <g transform="translate(29.5 0)">
        <path d="M 0 0 m -7.5 0 a 7.5 7.5 0 1 0 15.0 0 a 7.5 7.5 0 1 0 -15.0 0 z" fill="none" stroke="black" stroke-width="1"/>
      </g>
      <g transform="translate(0 29.5)">
        <path d="M 0 0 m -7.5 0 a 7.5 7.5 0 1 0 15.0 0 a 7.5 7.5 0 1 0 -15.0 0 z" fill="none" stroke="black" stroke-width="1"/>
      </g>
      <g transform="translate(0 -29.5)">
        <path d="M 0 0 m -7.5 0 a 7.5 7.5 0 1 0 15.0 0 a 7.5 7.5 0 1 0 -15.0 0 z" fill="none" stroke="black" stroke-width="1"/>
      </g>
      <g transform="translate(20.86 20.86)">
        <path d="M 0 0 m -1.55 0 a 1.55 1.55 0 1 0 3.1 0 a 1.55 1.55 0 1 0 -3.1 0 z" fill="none" stroke="black" stroke-width="1"/>
      </g>
      <g transform="translate(-20.86 20.86)">
        <path d="M 0 0 m -1.55 0 a 1.55 1.55 0 1 0 3.1 0 a 1.55 1.55 0 1 0 -3.1 0 z" fill="none" stroke="black" stroke-width="1"/>
      </g>
      <g transform="translate(20.86 -20.86)">
        <path d="M 0 0 m -1.55 0 a 1.55 1.55 0 1 0 3.1 0 a 1.55 1.55 0 1 0 -3.1 0 z" fill="none" stroke="black" stroke-width="1"/>
      </g>
      <g transform="translate(-20.86 -20.86)">
        <path d="M 0 0 m -1.55 0 a 1.55 1.55 0 1 0 3.1 0 a 1.55 1.55 0 1 0 -3.1 0 z" fill="none" stroke="black" stroke-width="1"/>
      </g>
    </g>
    <g transform="translate(225 72.5)">
      <g transform="translate(-26.669999999999998 -33.019999999999996)">
        <g transform="translate(50.8 15.239999999999998)">
          <path d="M 0 0 m -1.55 0 a 1.55 1.55 0 1 0 3.1 0 a 1.55 1.55 0 1 0 -3.1 0 z" fill="none" stroke="black" stroke-width="1"/>
        </g>
        <g transform="translate(7.619999999999999 66.03999999999999)">
          <path d="M 0 0 m -1.55 0 a 1.55 1.55 0 1 0 3.1 0 a 1.55 1.55 0 1 0 -3.1 0 z" fill="none" stroke="black" stroke-width="1"/>
        </g>
        <g transform="translate(35.559999999999995 66.03999999999999)">
          <path d="M 0 0 m -1.55 0 a 1.55 1.55 0 1 0 3.1 0 a 1.55 1.55 0 1 0 -3.1 0 z" fill="none" stroke="black" stroke-width="1"/>
        </g>
      </g>
    </g>
    <g transform="translate(170 72.5)">
      <g transform="translate(0 -40)">
        <g transform="translate(-10.0 0)">
          <path d="M 0 0 m -1.05 0 a 1.05 1.05 0 1 0 2.1 0 a 1.05 1.05 0 1 0 -2.1 0 z" fill="none" stroke="black" stroke-width="1"/>
        </g>
        <g transform="translate(10.0 0)">
          <path d="M 0 0 m -1.05 0 a 1.05 1.05 0 1 0 2.1 0 a 1.05 1.05 0 1 0 -2.1 0 z" fill="none" stroke="black" stroke-width="1"/>
        </g>
      </g>
      <g transform="translate(0 40)">
        <g transform="translate(-10.0 0)">
          <path d="M 0 0 m -1.05 0 a 1.05 1.05 0 1 0 2.1 0 a 1.05 1.05 0 1 0 -2.1 0 z" fill="none" stroke="black" stroke-width="1"/>
        </g>
        <g transform="translate(10.0 0)">
          <path d="M 0 0 m -1.05 0 a 1.05 1.05 0 1 0 2.1 0 a 1.05 1.05 0 1 0 -2.1 0 z" fill="none" stroke="black" stroke-width="1"/>
        </g>
      </g>
    </g>
    <g transform="translate(170 72.5)">
      <path d="M 0 0 m -10 0 a 10 10 0 1 0 20 0 a 10 10 0 1 0 -20 0 z" fill="none" stroke="black" stroke-width="1"/>
    </g>
    <g transform="translate(120 72.5)">
      <g transform="translate(-12.827 -31.115000000000002)">
        <g transform="translate(3.302 3.302)">
          <path d="M 0 0 m -1.3 0 a 1.3 1.3 0 1 0 2.6 0 a 1.3 1.3 0 1 0 -2.6 0 z" fill="none" stroke="black" stroke-width="1"/>
        </g>
        <g transform="translate(22.352 3.302)">
          <path d="M 0 0 m -1.3 0 a 1.3 1.3 0 1 0 2.6 0 a 1.3 1.3 0 1 0 -2.6 0 z" fill="none" stroke="black" stroke-width="1"/>
        </g>
        <g transform="translate(3.302 59.181999999999995)">
          <path d="M 0 0 m -1.3 0 a 1.3 1.3 0 1 0 2.6 0 a 1.3 1.3 0 1 0 -2.6 0 z" fill="none" stroke="black" stroke-width="1"/>
        </g>
        <g transform="translate(22.352 59.181999999999995)">
          <path d="M 0 0 m -1.3 0 a 1.3 1.3 0 1 0 2.6 0 a 1.3 1.3 0 1 0 -2.6 0 z" fill="none" stroke="black" stroke-width="1"/>
        </g>
      </g>
    </g>
    <g transform="translate(50 72.5)">
      <g transform="rotate(90 0 0)">
        <g transform="translate(-24.5 -29.0)">
          <path d="M 0 0 m -1.3 0 a 1.3 1.3 0 1 0 2.6 0 a 1.3 1.3 0 1 0 -2.6 0 z" fill="none" stroke="black" stroke-width="1"/>
        </g>
        <g transform="translate(24.5 -29.0)">
          <path d="M 0 0 m -1.3 0 a 1.3 1.3 0 1 0 2.6 0 a 1.3 1.3 0 1 0 -2.6 0 z" fill="none" stroke="black" stroke-width="1"/>
        </g>
        <g transform="translate(-24.5 29.0)">
          <path d="M 0 0 m -1.3 0 a 1.3 1.3 0 1 0 2.6 0 a 1.3 1.3 0 1 0 -2.6 0 z" fill="none" stroke="black" stroke-width="1"/>
        </g>
        <g transform="translate(24.5 29.0)">
          <path d="M 0 0 m -1.3 0 a 1.3 1.3 0 1 0 2.6 0 a 1.3 1.3 0 1 0 -2.6 0 z" fill="none" stroke="black" stroke-width="1"/>
        </g>
      </g>
    </g>
    <g transform="translate(180.0 72.5)">
      <path d="M -180.0 -72.5 l 360 0 l 0 145 l -360 0 z" fill="none" stroke="black" stroke-width="1"/>
    </g>
  </g>
</svg>
